<svg width="34" height="34" viewBox="0 0 34 34" fill="none" xmlns="http://www.w3.org/2000/svg">
<path d="M27.5652 8.19048H23.7061L21.4783 5.71429H14.1739V8.19048H20.407L22.6348 10.6667H27.5652V25.5238H8.08696V14.381H5.65217V25.5238C5.65217 26.8857 6.74783 28 8.08696 28H27.5652C28.9043 28 30 26.8857 30 25.5238V10.6667C30 9.30476 28.9043 8.19048 27.5652 8.19048ZM11.7391 18.0952C11.7391 21.5124 14.4661 24.2857 17.8261 24.2857C21.1861 24.2857 23.913 21.5124 23.913 18.0952C23.913 14.6781 21.1861 11.9048 17.8261 11.9048C14.4661 11.9048 11.7391 14.6781 11.7391 18.0952ZM17.8261 14.381C19.8348 14.381 21.4783 16.0524 21.4783 18.0952C21.4783 20.1381 19.8348 21.8095 17.8261 21.8095C15.8174 21.8095 14.1739 20.1381 14.1739 18.0952C14.1739 16.0524 15.8174 14.381 17.8261 14.381ZM8.08696 8.19048H11.7391V5.71429H8.08696V2H5.65217V5.71429H2V8.19048H5.65217V11.9048H8.08696V8.19048Z" fill="white"/>
</svg>
