<svg width="68" height="68" viewBox="0 0 68 68" fill="none" xmlns="http://www.w3.org/2000/svg">
<g filter="url(#filter0_d_206_1541)">
<rect x="6" y="3" width="56" height="56" rx="8" fill="#35AAFF"/>
<path d="M33.9999 16.8335C28.5174 16.8335 24.0833 21.2677 24.0833 26.7502C24.0833 34.1877 33.9999 45.1668 33.9999 45.1668C33.9999 45.1668 43.9166 34.1877 43.9166 26.7502C43.9166 21.2677 39.4824 16.8335 33.9999 16.8335ZM33.9999 30.2918C32.0449 30.2918 30.4583 28.7052 30.4583 26.7502C30.4583 24.7952 32.0449 23.2085 33.9999 23.2085C35.9549 23.2085 37.5416 24.7952 37.5416 26.7502C37.5416 28.7052 35.9549 30.2918 33.9999 30.2918Z" fill="white"/>
</g>
<defs>
<filter id="filter0_d_206_1541" x="0" y="0" width="68" height="68" filterUnits="userSpaceOnUse" color-interpolation-filters="sRGB">
<feFlood flood-opacity="0" result="BackgroundImageFix"/>
<feColorMatrix in="SourceAlpha" type="matrix" values="0 0 0 0 0 0 0 0 0 0 0 0 0 0 0 0 0 0 127 0" result="hardAlpha"/>
<feOffset dy="3"/>
<feGaussianBlur stdDeviation="3"/>
<feComposite in2="hardAlpha" operator="out"/>
<feColorMatrix type="matrix" values="0 0 0 0 0 0 0 0 0 0.405446 0 0 0 0 0.7 0 0 0 0.3 0"/>
<feBlend mode="normal" in2="BackgroundImageFix" result="effect1_dropShadow_206_1541"/>
<feBlend mode="normal" in="SourceGraphic" in2="effect1_dropShadow_206_1541" result="shape"/>
</filter>
</defs>
</svg>
